<mxfile host="app.diagrams.net" modified="2023-11-04T14:39:10.716Z" agent="Mozilla/5.0 (Windows NT 10.0; Win64; x64) AppleWebKit/537.36 (KHTML, like Gecko) Chrome/118.0.0.0 Safari/537.36" etag="fbbCBpZRulgb5K8ttuEf" version="22.0.8" type="device">
  <diagram id="0uNSTiFyO5Xx_1StXq3_" name="umlprogrammclasses">
    <mxGraphModel dx="1272" dy="441" grid="1" gridSize="10" guides="1" tooltips="1" connect="1" arrows="1" fold="1" page="1" pageScale="1" pageWidth="827" pageHeight="1169" math="0" shadow="0">
      <root>
        <mxCell id="0" />
        <mxCell id="1" parent="0" />
        <mxCell id="LyiPn6veYWKkoinjSZd2-1" value="User" style="swimlane;fontStyle=2;align=center;verticalAlign=top;childLayout=stackLayout;horizontal=1;startSize=26;horizontalStack=0;resizeParent=1;resizeLast=0;collapsible=1;marginBottom=0;rounded=0;shadow=0;strokeWidth=1;" vertex="1" parent="1">
          <mxGeometry x="490" y="270" width="140" height="220" as="geometry">
            <mxRectangle x="230" y="140" width="160" height="26" as="alternateBounds" />
          </mxGeometry>
        </mxCell>
        <mxCell id="LyiPn6veYWKkoinjSZd2-2" value="- name: Int" style="text;align=left;verticalAlign=top;spacingLeft=4;spacingRight=4;overflow=hidden;rotatable=0;points=[[0,0.5],[1,0.5]];portConstraint=eastwest;" vertex="1" parent="LyiPn6veYWKkoinjSZd2-1">
          <mxGeometry y="26" width="140" height="26" as="geometry" />
        </mxCell>
        <mxCell id="LyiPn6veYWKkoinjSZd2-3" value="- email: String" style="text;align=left;verticalAlign=top;spacingLeft=4;spacingRight=4;overflow=hidden;rotatable=0;points=[[0,0.5],[1,0.5]];portConstraint=eastwest;rounded=0;shadow=0;html=0;" vertex="1" parent="LyiPn6veYWKkoinjSZd2-1">
          <mxGeometry y="52" width="140" height="26" as="geometry" />
        </mxCell>
        <mxCell id="LyiPn6veYWKkoinjSZd2-4" value="- age: Int" style="text;align=left;verticalAlign=top;spacingLeft=4;spacingRight=4;overflow=hidden;rotatable=0;points=[[0,0.5],[1,0.5]];portConstraint=eastwest;rounded=0;shadow=0;html=0;" vertex="1" parent="LyiPn6veYWKkoinjSZd2-1">
          <mxGeometry y="78" width="140" height="26" as="geometry" />
        </mxCell>
        <mxCell id="LyiPn6veYWKkoinjSZd2-5" value="- role: String" style="text;align=left;verticalAlign=top;spacingLeft=4;spacingRight=4;overflow=hidden;rotatable=0;points=[[0,0.5],[1,0.5]];portConstraint=eastwest;rounded=0;shadow=0;html=0;" vertex="1" parent="LyiPn6veYWKkoinjSZd2-1">
          <mxGeometry y="104" width="140" height="26" as="geometry" />
        </mxCell>
        <mxCell id="LyiPn6veYWKkoinjSZd2-6" value="" style="line;html=1;strokeWidth=1;align=left;verticalAlign=middle;spacingTop=-1;spacingLeft=3;spacingRight=3;rotatable=0;labelPosition=right;points=[];portConstraint=eastwest;" vertex="1" parent="LyiPn6veYWKkoinjSZd2-1">
          <mxGeometry y="130" width="140" height="8" as="geometry" />
        </mxCell>
        <mxCell id="LyiPn6veYWKkoinjSZd2-7" value="+ checkPsychEmotLevel()" style="text;align=left;verticalAlign=top;spacingLeft=4;spacingRight=4;overflow=hidden;rotatable=0;points=[[0,0.5],[1,0.5]];portConstraint=eastwest;" vertex="1" parent="LyiPn6veYWKkoinjSZd2-1">
          <mxGeometry y="138" width="140" height="26" as="geometry" />
        </mxCell>
        <mxCell id="LyiPn6veYWKkoinjSZd2-8" value="+ checkLightingLevel()" style="text;align=left;verticalAlign=top;spacingLeft=4;spacingRight=4;overflow=hidden;rotatable=0;points=[[0,0.5],[1,0.5]];portConstraint=eastwest;" vertex="1" parent="LyiPn6veYWKkoinjSZd2-1">
          <mxGeometry y="164" width="140" height="26" as="geometry" />
        </mxCell>
        <mxCell id="J2jFbFHdJuAAOiXJvLUw-23" value="+ sendServisec()" style="text;whiteSpace=wrap;html=1;" vertex="1" parent="LyiPn6veYWKkoinjSZd2-1">
          <mxGeometry y="190" width="140" height="30" as="geometry" />
        </mxCell>
        <mxCell id="LyiPn6veYWKkoinjSZd2-9" style="edgeStyle=orthogonalEdgeStyle;rounded=0;orthogonalLoop=1;jettySize=auto;html=1;exitX=0.458;exitY=0.003;exitDx=0;exitDy=0;entryX=0.499;entryY=1.002;entryDx=0;entryDy=0;endSize=10;endArrow=open;endFill=0;entryPerimeter=0;exitPerimeter=0;" edge="1" parent="1" source="LyiPn6veYWKkoinjSZd2-10" target="LyiPn6veYWKkoinjSZd2-67">
          <mxGeometry relative="1" as="geometry">
            <Array as="points">
              <mxPoint x="892" y="471" />
            </Array>
          </mxGeometry>
        </mxCell>
        <mxCell id="LyiPn6veYWKkoinjSZd2-10" value="lighting" style="swimlane;fontStyle=2;align=center;verticalAlign=top;childLayout=stackLayout;horizontal=1;startSize=26;horizontalStack=0;resizeParent=1;resizeLast=0;collapsible=1;marginBottom=0;rounded=0;shadow=0;strokeWidth=1;" vertex="1" parent="1">
          <mxGeometry x="812" y="470" width="170" height="200" as="geometry">
            <mxRectangle x="550" y="140" width="160" height="26" as="alternateBounds" />
          </mxGeometry>
        </mxCell>
        <mxCell id="LyiPn6veYWKkoinjSZd2-11" value="- time: Date" style="text;align=left;verticalAlign=top;spacingLeft=4;spacingRight=4;overflow=hidden;rotatable=0;points=[[0,0.5],[1,0.5]];portConstraint=eastwest;" vertex="1" parent="LyiPn6veYWKkoinjSZd2-10">
          <mxGeometry y="26" width="170" height="26" as="geometry" />
        </mxCell>
        <mxCell id="LyiPn6veYWKkoinjSZd2-12" value="- level: Int" style="text;align=left;verticalAlign=top;spacingLeft=4;spacingRight=4;overflow=hidden;rotatable=0;points=[[0,0.5],[1,0.5]];portConstraint=eastwest;rounded=0;shadow=0;html=0;" vertex="1" parent="LyiPn6veYWKkoinjSZd2-10">
          <mxGeometry y="52" width="170" height="26" as="geometry" />
        </mxCell>
        <mxCell id="LyiPn6veYWKkoinjSZd2-13" value="- comfort: Int" style="text;align=left;verticalAlign=top;spacingLeft=4;spacingRight=4;overflow=hidden;rotatable=0;points=[[0,0.5],[1,0.5]];portConstraint=eastwest;rounded=0;shadow=0;html=0;" vertex="1" parent="LyiPn6veYWKkoinjSZd2-10">
          <mxGeometry y="78" width="170" height="26" as="geometry" />
        </mxCell>
        <mxCell id="LyiPn6veYWKkoinjSZd2-14" value="- choose_lighting: String" style="text;align=left;verticalAlign=top;spacingLeft=4;spacingRight=4;overflow=hidden;rotatable=0;points=[[0,0.5],[1,0.5]];portConstraint=eastwest;rounded=0;shadow=0;html=0;" vertex="1" parent="LyiPn6veYWKkoinjSZd2-10">
          <mxGeometry y="104" width="170" height="26" as="geometry" />
        </mxCell>
        <mxCell id="LyiPn6veYWKkoinjSZd2-16" value="" style="line;html=1;strokeWidth=1;align=left;verticalAlign=middle;spacingTop=-1;spacingLeft=3;spacingRight=3;rotatable=0;labelPosition=right;points=[];portConstraint=eastwest;" vertex="1" parent="LyiPn6veYWKkoinjSZd2-10">
          <mxGeometry y="130" width="170" height="8" as="geometry" />
        </mxCell>
        <mxCell id="LyiPn6veYWKkoinjSZd2-17" value="+ sendNotification()" style="text;align=left;verticalAlign=top;spacingLeft=4;spacingRight=4;overflow=hidden;rotatable=0;points=[[0,0.5],[1,0.5]];portConstraint=eastwest;" vertex="1" parent="LyiPn6veYWKkoinjSZd2-10">
          <mxGeometry y="138" width="170" height="26" as="geometry" />
        </mxCell>
        <mxCell id="LyiPn6veYWKkoinjSZd2-18" value="+ calculateLightingLevel()" style="text;align=left;verticalAlign=top;spacingLeft=4;spacingRight=4;overflow=hidden;rotatable=0;points=[[0,0.5],[1,0.5]];portConstraint=eastwest;" vertex="1" parent="LyiPn6veYWKkoinjSZd2-10">
          <mxGeometry y="164" width="170" height="26" as="geometry" />
        </mxCell>
        <mxCell id="LyiPn6veYWKkoinjSZd2-19" value="Consumer" style="swimlane;fontStyle=2;align=center;verticalAlign=top;childLayout=stackLayout;horizontal=1;startSize=26;horizontalStack=0;resizeParent=1;resizeLast=0;collapsible=1;marginBottom=0;rounded=0;shadow=0;strokeWidth=1;" vertex="1" parent="1">
          <mxGeometry x="140" y="100" width="210" height="170" as="geometry">
            <mxRectangle x="230" y="140" width="160" height="26" as="alternateBounds" />
          </mxGeometry>
        </mxCell>
        <mxCell id="LyiPn6veYWKkoinjSZd2-20" value="- psych_emot_level: Array" style="text;align=left;verticalAlign=top;spacingLeft=4;spacingRight=4;overflow=hidden;rotatable=0;points=[[0,0.5],[1,0.5]];portConstraint=eastwest;" vertex="1" parent="LyiPn6veYWKkoinjSZd2-19">
          <mxGeometry y="26" width="210" height="26" as="geometry" />
        </mxCell>
        <mxCell id="LyiPn6veYWKkoinjSZd2-21" value="- lighting_level: Array" style="text;align=left;verticalAlign=top;spacingLeft=4;spacingRight=4;overflow=hidden;rotatable=0;points=[[0,0.5],[1,0.5]];portConstraint=eastwest;rounded=0;shadow=0;html=0;" vertex="1" parent="LyiPn6veYWKkoinjSZd2-19">
          <mxGeometry y="52" width="210" height="28" as="geometry" />
        </mxCell>
        <mxCell id="LyiPn6veYWKkoinjSZd2-22" value="" style="line;html=1;strokeWidth=1;align=left;verticalAlign=middle;spacingTop=-1;spacingLeft=3;spacingRight=3;rotatable=0;labelPosition=right;points=[];portConstraint=eastwest;" vertex="1" parent="LyiPn6veYWKkoinjSZd2-19">
          <mxGeometry y="80" width="210" height="8" as="geometry" />
        </mxCell>
        <mxCell id="LyiPn6veYWKkoinjSZd2-23" value="+ sendTechnicalQuestion()" style="text;align=left;verticalAlign=top;spacingLeft=4;spacingRight=4;overflow=hidden;rotatable=0;points=[[0,0.5],[1,0.5]];portConstraint=eastwest;" vertex="1" parent="LyiPn6veYWKkoinjSZd2-19">
          <mxGeometry y="88" width="210" height="26" as="geometry" />
        </mxCell>
        <mxCell id="LyiPn6veYWKkoinjSZd2-24" value="+ checkPsychEmotLevel()" style="text;align=left;verticalAlign=top;spacingLeft=4;spacingRight=4;overflow=hidden;rotatable=0;points=[[0,0.5],[1,0.5]];portConstraint=eastwest;" vertex="1" parent="LyiPn6veYWKkoinjSZd2-19">
          <mxGeometry y="114" width="210" height="26" as="geometry" />
        </mxCell>
        <mxCell id="LyiPn6veYWKkoinjSZd2-25" value="+ checkLightingLevel()" style="text;align=left;verticalAlign=top;spacingLeft=4;spacingRight=4;overflow=hidden;rotatable=0;points=[[0,0.5],[1,0.5]];portConstraint=eastwest;" vertex="1" parent="LyiPn6veYWKkoinjSZd2-19">
          <mxGeometry y="140" width="210" height="26" as="geometry" />
        </mxCell>
        <mxCell id="LyiPn6veYWKkoinjSZd2-26" value="" style="endArrow=block;html=1;rounded=0;endFill=0;endSize=13;entryX=-0.005;entryY=0.701;entryDx=0;entryDy=0;entryPerimeter=0;" edge="1" parent="1" target="LyiPn6veYWKkoinjSZd2-3">
          <mxGeometry width="50" height="50" relative="1" as="geometry">
            <mxPoint x="240" y="270" as="sourcePoint" />
            <mxPoint x="560" y="275" as="targetPoint" />
            <Array as="points">
              <mxPoint x="240" y="340" />
              <mxPoint x="340" y="340" />
              <mxPoint x="440" y="340" />
            </Array>
          </mxGeometry>
        </mxCell>
        <mxCell id="LyiPn6veYWKkoinjSZd2-27" value="Technical_Support" style="swimlane;fontStyle=2;align=center;verticalAlign=top;childLayout=stackLayout;horizontal=1;startSize=26;horizontalStack=0;resizeParent=1;resizeLast=0;collapsible=1;marginBottom=0;rounded=0;shadow=0;strokeWidth=1;" vertex="1" parent="1">
          <mxGeometry x="145" y="450" width="210" height="120" as="geometry">
            <mxRectangle x="230" y="140" width="160" height="26" as="alternateBounds" />
          </mxGeometry>
        </mxCell>
        <mxCell id="LyiPn6veYWKkoinjSZd2-29" value="- position: String" style="text;align=left;verticalAlign=top;spacingLeft=4;spacingRight=4;overflow=hidden;rotatable=0;points=[[0,0.5],[1,0.5]];portConstraint=eastwest;rounded=0;shadow=0;html=0;" vertex="1" parent="LyiPn6veYWKkoinjSZd2-27">
          <mxGeometry y="26" width="210" height="28" as="geometry" />
        </mxCell>
        <mxCell id="LyiPn6veYWKkoinjSZd2-28" value="- specialization: String" style="text;align=left;verticalAlign=top;spacingLeft=4;spacingRight=4;overflow=hidden;rotatable=0;points=[[0,0.5],[1,0.5]];portConstraint=eastwest;" vertex="1" parent="LyiPn6veYWKkoinjSZd2-27">
          <mxGeometry y="54" width="210" height="26" as="geometry" />
        </mxCell>
        <mxCell id="LyiPn6veYWKkoinjSZd2-30" value="" style="line;html=1;strokeWidth=1;align=left;verticalAlign=middle;spacingTop=-1;spacingLeft=3;spacingRight=3;rotatable=0;labelPosition=right;points=[];portConstraint=eastwest;" vertex="1" parent="LyiPn6veYWKkoinjSZd2-27">
          <mxGeometry y="80" width="210" height="8" as="geometry" />
        </mxCell>
        <mxCell id="LyiPn6veYWKkoinjSZd2-31" value="+ answerTechnicalQuestion()" style="text;align=left;verticalAlign=top;spacingLeft=4;spacingRight=4;overflow=hidden;rotatable=0;points=[[0,0.5],[1,0.5]];portConstraint=eastwest;" vertex="1" parent="LyiPn6veYWKkoinjSZd2-27">
          <mxGeometry y="88" width="210" height="26" as="geometry" />
        </mxCell>
        <mxCell id="LyiPn6veYWKkoinjSZd2-32" value="technical_question" style="swimlane;fontStyle=2;align=center;verticalAlign=top;childLayout=stackLayout;horizontal=1;startSize=26;horizontalStack=0;resizeParent=1;resizeLast=0;collapsible=1;marginBottom=0;rounded=0;shadow=0;strokeWidth=1;" vertex="1" parent="1">
          <mxGeometry x="170" y="630" width="160" height="80" as="geometry">
            <mxRectangle x="550" y="140" width="160" height="26" as="alternateBounds" />
          </mxGeometry>
        </mxCell>
        <mxCell id="LyiPn6veYWKkoinjSZd2-33" value="- question: String" style="text;align=left;verticalAlign=top;spacingLeft=4;spacingRight=4;overflow=hidden;rotatable=0;points=[[0,0.5],[1,0.5]];portConstraint=eastwest;" vertex="1" parent="LyiPn6veYWKkoinjSZd2-32">
          <mxGeometry y="26" width="160" height="26" as="geometry" />
        </mxCell>
        <mxCell id="LyiPn6veYWKkoinjSZd2-34" value="- answer: String" style="text;align=left;verticalAlign=top;spacingLeft=4;spacingRight=4;overflow=hidden;rotatable=0;points=[[0,0.5],[1,0.5]];portConstraint=eastwest;rounded=0;shadow=0;html=0;" vertex="1" parent="LyiPn6veYWKkoinjSZd2-32">
          <mxGeometry y="52" width="160" height="26" as="geometry" />
        </mxCell>
        <mxCell id="LyiPn6veYWKkoinjSZd2-36" style="edgeStyle=orthogonalEdgeStyle;rounded=0;orthogonalLoop=1;jettySize=auto;html=1;exitX=0;exitY=0.5;exitDx=0;exitDy=0;entryX=0;entryY=0.5;entryDx=0;entryDy=0;" edge="1" parent="1" source="LyiPn6veYWKkoinjSZd2-21" target="LyiPn6veYWKkoinjSZd2-33">
          <mxGeometry relative="1" as="geometry">
            <mxPoint x="750" y="770" as="targetPoint" />
            <Array as="points">
              <mxPoint x="140" y="170" />
              <mxPoint x="80" y="170" />
              <mxPoint x="80" y="670" />
              <mxPoint x="170" y="670" />
            </Array>
          </mxGeometry>
        </mxCell>
        <mxCell id="LyiPn6veYWKkoinjSZd2-37" style="edgeStyle=orthogonalEdgeStyle;rounded=0;orthogonalLoop=1;jettySize=auto;html=1;exitX=0.5;exitY=1;exitDx=0;exitDy=0;entryX=0.5;entryY=0;entryDx=0;entryDy=0;" edge="1" parent="1" source="LyiPn6veYWKkoinjSZd2-27" target="LyiPn6veYWKkoinjSZd2-32">
          <mxGeometry relative="1" as="geometry">
            <Array as="points">
              <mxPoint x="250" y="620" />
              <mxPoint x="250" y="620" />
            </Array>
          </mxGeometry>
        </mxCell>
        <mxCell id="LyiPn6veYWKkoinjSZd2-38" value="answer" style="text;html=1;resizable=0;points=[];;align=center;verticalAlign=middle;labelBackgroundColor=none;rounded=0;shadow=0;strokeWidth=1;fontSize=12;" vertex="1" connectable="0" parent="1">
          <mxGeometry x="290" y="600" as="geometry" />
        </mxCell>
        <mxCell id="LyiPn6veYWKkoinjSZd2-39" value="send" style="text;html=1;resizable=0;points=[];;align=center;verticalAlign=middle;labelBackgroundColor=none;rounded=0;shadow=0;strokeWidth=1;fontSize=12;" vertex="1" connectable="0" parent="1">
          <mxGeometry x="50" y="366" as="geometry" />
        </mxCell>
        <mxCell id="LyiPn6veYWKkoinjSZd2-40" value="1" style="resizable=0;align=left;verticalAlign=bottom;labelBackgroundColor=none;fontSize=12;" connectable="0" vertex="1" parent="1">
          <mxGeometry x="80" y="185" as="geometry">
            <mxPoint x="32" y="-31" as="offset" />
          </mxGeometry>
        </mxCell>
        <mxCell id="LyiPn6veYWKkoinjSZd2-41" value="" style="resizable=0;align=right;verticalAlign=bottom;labelBackgroundColor=none;fontSize=12;" connectable="0" vertex="1" parent="1">
          <mxGeometry x="829" y="540" as="geometry">
            <mxPoint x="21" y="353" as="offset" />
          </mxGeometry>
        </mxCell>
        <mxCell id="LyiPn6veYWKkoinjSZd2-43" value="1" style="resizable=0;align=left;verticalAlign=bottom;labelBackgroundColor=none;fontSize=12;" connectable="0" vertex="1" parent="1">
          <mxGeometry x="230" y="590" as="geometry" />
        </mxCell>
        <mxCell id="LyiPn6veYWKkoinjSZd2-44" value="" style="endArrow=block;html=1;rounded=0;endFill=0;endSize=13;entryX=0;entryY=0.5;entryDx=0;entryDy=0;exitX=0.453;exitY=-0.016;exitDx=0;exitDy=0;exitPerimeter=0;" edge="1" parent="1" source="LyiPn6veYWKkoinjSZd2-27" target="LyiPn6veYWKkoinjSZd2-4">
          <mxGeometry width="50" height="50" relative="1" as="geometry">
            <mxPoint x="355" y="520" as="sourcePoint" />
            <mxPoint x="465" y="360" as="targetPoint" />
            <Array as="points">
              <mxPoint x="240" y="360" />
              <mxPoint x="440" y="361" />
            </Array>
          </mxGeometry>
        </mxCell>
        <mxCell id="LyiPn6veYWKkoinjSZd2-52" value="" style="endArrow=open;html=1;rounded=0;exitX=1;exitY=0.5;exitDx=0;exitDy=0;entryX=0;entryY=0.5;entryDx=0;entryDy=0;endFill=0;endSize=10;" edge="1" parent="1" source="LyiPn6veYWKkoinjSZd2-4" target="LyiPn6veYWKkoinjSZd2-13">
          <mxGeometry width="50" height="50" relative="1" as="geometry">
            <mxPoint x="660" y="420" as="sourcePoint" />
            <mxPoint x="730" y="520" as="targetPoint" />
            <Array as="points">
              <mxPoint x="730" y="361" />
              <mxPoint x="730" y="560" />
            </Array>
          </mxGeometry>
        </mxCell>
        <mxCell id="LyiPn6veYWKkoinjSZd2-53" value="send" style="text;html=1;resizable=0;points=[];;align=center;verticalAlign=middle;labelBackgroundColor=none;rounded=0;shadow=0;strokeWidth=1;fontSize=12;" vertex="1" connectable="0" parent="1">
          <mxGeometry x="700" y="450" as="geometry" />
        </mxCell>
        <mxCell id="LyiPn6veYWKkoinjSZd2-54" value="1" style="resizable=0;align=left;verticalAlign=bottom;labelBackgroundColor=none;fontSize=12;" connectable="0" vertex="1" parent="1">
          <mxGeometry x="660" y="390" as="geometry" />
        </mxCell>
        <mxCell id="LyiPn6veYWKkoinjSZd2-55" value="*" style="resizable=0;align=right;verticalAlign=bottom;labelBackgroundColor=none;fontSize=12;" connectable="0" vertex="1" parent="1">
          <mxGeometry x="260" y="690" as="geometry">
            <mxPoint x="-18" y="-62" as="offset" />
          </mxGeometry>
        </mxCell>
        <mxCell id="LyiPn6veYWKkoinjSZd2-58" value="*" style="resizable=0;align=right;verticalAlign=bottom;labelBackgroundColor=none;fontSize=12;" connectable="0" vertex="1" parent="1">
          <mxGeometry x="145" y="670" as="geometry" />
        </mxCell>
        <mxCell id="LyiPn6veYWKkoinjSZd2-59" value="*" style="resizable=0;align=right;verticalAlign=bottom;labelBackgroundColor=none;fontSize=12;" connectable="0" vertex="1" parent="1">
          <mxGeometry x="790" y="560" as="geometry" />
        </mxCell>
        <mxCell id="LyiPn6veYWKkoinjSZd2-62" value="psych-emot state" style="swimlane;fontStyle=2;align=center;verticalAlign=top;childLayout=stackLayout;horizontal=1;startSize=26;horizontalStack=0;resizeParent=1;resizeLast=0;collapsible=1;marginBottom=0;rounded=0;shadow=0;strokeWidth=1;" vertex="1" parent="1">
          <mxGeometry x="812" y="128" width="160" height="112" as="geometry">
            <mxRectangle x="550" y="140" width="160" height="26" as="alternateBounds" />
          </mxGeometry>
        </mxCell>
        <mxCell id="LyiPn6veYWKkoinjSZd2-63" value="- time: Date" style="text;align=left;verticalAlign=top;spacingLeft=4;spacingRight=4;overflow=hidden;rotatable=0;points=[[0,0.5],[1,0.5]];portConstraint=eastwest;" vertex="1" parent="LyiPn6veYWKkoinjSZd2-62">
          <mxGeometry y="26" width="160" height="26" as="geometry" />
        </mxCell>
        <mxCell id="LyiPn6veYWKkoinjSZd2-64" value="- level: Int" style="text;align=left;verticalAlign=top;spacingLeft=4;spacingRight=4;overflow=hidden;rotatable=0;points=[[0,0.5],[1,0.5]];portConstraint=eastwest;rounded=0;shadow=0;html=0;" vertex="1" parent="LyiPn6veYWKkoinjSZd2-62">
          <mxGeometry y="52" width="160" height="26" as="geometry" />
        </mxCell>
        <mxCell id="LyiPn6veYWKkoinjSZd2-66" value="" style="line;html=1;strokeWidth=1;align=left;verticalAlign=middle;spacingTop=-1;spacingLeft=3;spacingRight=3;rotatable=0;labelPosition=right;points=[];portConstraint=eastwest;" vertex="1" parent="LyiPn6veYWKkoinjSZd2-62">
          <mxGeometry y="78" width="160" height="8" as="geometry" />
        </mxCell>
        <mxCell id="LyiPn6veYWKkoinjSZd2-67" value="+ sendNotification()" style="text;align=left;verticalAlign=top;spacingLeft=4;spacingRight=4;overflow=hidden;rotatable=0;points=[[0,0.5],[1,0.5]];portConstraint=eastwest;" vertex="1" parent="LyiPn6veYWKkoinjSZd2-62">
          <mxGeometry y="86" width="160" height="26" as="geometry" />
        </mxCell>
        <mxCell id="LyiPn6veYWKkoinjSZd2-68" value="" style="resizable=0;align=right;verticalAlign=bottom;labelBackgroundColor=none;fontSize=12;" connectable="0" vertex="1" parent="1">
          <mxGeometry x="829" y="290" as="geometry">
            <mxPoint x="21" y="353" as="offset" />
          </mxGeometry>
        </mxCell>
        <mxCell id="LyiPn6veYWKkoinjSZd2-69" value="*" style="resizable=0;align=right;verticalAlign=bottom;labelBackgroundColor=none;fontSize=12;" connectable="0" vertex="1" parent="1">
          <mxGeometry x="790" y="230" as="geometry" />
        </mxCell>
        <mxCell id="LyiPn6veYWKkoinjSZd2-70" value="" style="endArrow=open;html=1;rounded=0;exitX=1;exitY=0.5;exitDx=0;exitDy=0;entryX=0;entryY=0.769;entryDx=0;entryDy=0;endFill=0;endSize=10;entryPerimeter=0;" edge="1" parent="1" target="LyiPn6veYWKkoinjSZd2-64">
          <mxGeometry width="50" height="50" relative="1" as="geometry">
            <mxPoint x="649.5" y="330" as="sourcePoint" />
            <mxPoint x="816.5" y="490" as="targetPoint" />
            <Array as="points">
              <mxPoint x="729.5" y="330" />
              <mxPoint x="730" y="200" />
            </Array>
          </mxGeometry>
        </mxCell>
        <mxCell id="LyiPn6veYWKkoinjSZd2-71" value="1" style="resizable=0;align=left;verticalAlign=bottom;labelBackgroundColor=none;fontSize=12;" connectable="0" vertex="1" parent="1">
          <mxGeometry x="660" y="320" as="geometry" />
        </mxCell>
        <mxCell id="LyiPn6veYWKkoinjSZd2-72" value="send" style="text;html=1;resizable=0;points=[];;align=center;verticalAlign=middle;labelBackgroundColor=none;rounded=0;shadow=0;strokeWidth=1;fontSize=12;" vertex="1" connectable="0" parent="1">
          <mxGeometry x="700" y="280" as="geometry" />
        </mxCell>
        <mxCell id="LyiPn6veYWKkoinjSZd2-73" value="notification" style="swimlane;fontStyle=2;align=center;verticalAlign=top;childLayout=stackLayout;horizontal=1;startSize=26;horizontalStack=0;resizeParent=1;resizeLast=0;collapsible=1;marginBottom=0;rounded=0;shadow=0;strokeWidth=1;" vertex="1" parent="1">
          <mxGeometry x="1144" y="310" width="160" height="112" as="geometry">
            <mxRectangle x="550" y="140" width="160" height="26" as="alternateBounds" />
          </mxGeometry>
        </mxCell>
        <mxCell id="LyiPn6veYWKkoinjSZd2-74" value="- type: String" style="text;align=left;verticalAlign=top;spacingLeft=4;spacingRight=4;overflow=hidden;rotatable=0;points=[[0,0.5],[1,0.5]];portConstraint=eastwest;" vertex="1" parent="LyiPn6veYWKkoinjSZd2-73">
          <mxGeometry y="26" width="160" height="26" as="geometry" />
        </mxCell>
        <mxCell id="LyiPn6veYWKkoinjSZd2-75" value="- topic: String" style="text;align=left;verticalAlign=top;spacingLeft=4;spacingRight=4;overflow=hidden;rotatable=0;points=[[0,0.5],[1,0.5]];portConstraint=eastwest;rounded=0;shadow=0;html=0;" vertex="1" parent="LyiPn6veYWKkoinjSZd2-73">
          <mxGeometry y="52" width="160" height="26" as="geometry" />
        </mxCell>
        <mxCell id="LyiPn6veYWKkoinjSZd2-76" value="- text: String" style="text;align=left;verticalAlign=top;spacingLeft=4;spacingRight=4;overflow=hidden;rotatable=0;points=[[0,0.5],[1,0.5]];portConstraint=eastwest;rounded=0;shadow=0;html=0;" vertex="1" parent="LyiPn6veYWKkoinjSZd2-73">
          <mxGeometry y="78" width="160" height="26" as="geometry" />
        </mxCell>
        <mxCell id="LyiPn6veYWKkoinjSZd2-77" value="" style="resizable=0;align=right;verticalAlign=bottom;labelBackgroundColor=none;fontSize=12;" connectable="0" vertex="1" parent="1">
          <mxGeometry x="1156" y="420" as="geometry">
            <mxPoint x="21" y="353" as="offset" />
          </mxGeometry>
        </mxCell>
        <mxCell id="LyiPn6veYWKkoinjSZd2-78" style="edgeStyle=orthogonalEdgeStyle;rounded=0;orthogonalLoop=1;jettySize=auto;html=1;exitX=1;exitY=0.5;exitDx=0;exitDy=0;entryX=0;entryY=0.5;entryDx=0;entryDy=0;endArrow=open;endFill=0;endSize=10;" edge="1" parent="1" source="LyiPn6veYWKkoinjSZd2-64" target="LyiPn6veYWKkoinjSZd2-75">
          <mxGeometry relative="1" as="geometry">
            <Array as="points">
              <mxPoint x="972" y="200" />
              <mxPoint x="1058" y="200" />
              <mxPoint x="1058" y="375" />
            </Array>
          </mxGeometry>
        </mxCell>
        <mxCell id="LyiPn6veYWKkoinjSZd2-79" style="edgeStyle=orthogonalEdgeStyle;rounded=0;orthogonalLoop=1;jettySize=auto;html=1;exitX=1;exitY=0.5;exitDx=0;exitDy=0;entryX=0;entryY=0.5;entryDx=0;entryDy=0;strokeWidth=1;endSize=10;endArrow=open;endFill=0;" edge="1" parent="1" source="LyiPn6veYWKkoinjSZd2-12" target="LyiPn6veYWKkoinjSZd2-76">
          <mxGeometry relative="1" as="geometry">
            <Array as="points">
              <mxPoint x="982" y="560" />
              <mxPoint x="1063" y="560" />
              <mxPoint x="1063" y="401" />
            </Array>
          </mxGeometry>
        </mxCell>
        <mxCell id="LyiPn6veYWKkoinjSZd2-80" value="send" style="text;html=1;resizable=0;points=[];;align=center;verticalAlign=middle;labelBackgroundColor=none;rounded=0;shadow=0;strokeWidth=1;fontSize=12;" vertex="1" connectable="0" parent="1">
          <mxGeometry x="1090" y="270" as="geometry" />
        </mxCell>
        <mxCell id="LyiPn6veYWKkoinjSZd2-81" value="send" style="text;html=1;resizable=0;points=[];;align=center;verticalAlign=middle;labelBackgroundColor=none;rounded=0;shadow=0;strokeWidth=1;fontSize=12;" vertex="1" connectable="0" parent="1">
          <mxGeometry x="1090" y="470" as="geometry" />
        </mxCell>
        <mxCell id="LyiPn6veYWKkoinjSZd2-82" value="*" style="resizable=0;align=right;verticalAlign=bottom;labelBackgroundColor=none;fontSize=12;" connectable="0" vertex="1" parent="1">
          <mxGeometry x="1130" y="430" as="geometry" />
        </mxCell>
        <mxCell id="LyiPn6veYWKkoinjSZd2-83" value="*" style="resizable=0;align=right;verticalAlign=bottom;labelBackgroundColor=none;fontSize=12;" connectable="0" vertex="1" parent="1">
          <mxGeometry x="1130" y="365" as="geometry" />
        </mxCell>
        <mxCell id="LyiPn6veYWKkoinjSZd2-84" value="1" style="resizable=0;align=left;verticalAlign=bottom;labelBackgroundColor=none;fontSize=12;" connectable="0" vertex="1" parent="1">
          <mxGeometry x="982" y="250" as="geometry">
            <mxPoint x="1" y="-55" as="offset" />
          </mxGeometry>
        </mxCell>
        <mxCell id="LyiPn6veYWKkoinjSZd2-85" value="1" style="resizable=0;align=left;verticalAlign=bottom;labelBackgroundColor=none;fontSize=12;" connectable="0" vertex="1" parent="1">
          <mxGeometry x="990" y="585" as="geometry" />
        </mxCell>
        <mxCell id="LyiPn6veYWKkoinjSZd2-86" value="1" style="resizable=0;align=left;verticalAlign=bottom;labelBackgroundColor=none;fontSize=12;" connectable="0" vertex="1" parent="1">
          <mxGeometry x="870" y="460" as="geometry" />
        </mxCell>
        <mxCell id="LyiPn6veYWKkoinjSZd2-87" value="1" style="resizable=0;align=left;verticalAlign=bottom;labelBackgroundColor=none;fontSize=12;" connectable="0" vertex="1" parent="1">
          <mxGeometry x="870" y="270" as="geometry" />
        </mxCell>
        <mxCell id="LyiPn6veYWKkoinjSZd2-88" value="calculate" style="text;html=1;resizable=0;points=[];;align=center;verticalAlign=middle;labelBackgroundColor=none;rounded=0;shadow=0;strokeWidth=1;fontSize=12;" vertex="1" connectable="0" parent="1">
          <mxGeometry x="850" y="365" as="geometry" />
        </mxCell>
        <mxCell id="J2jFbFHdJuAAOiXJvLUw-11" value="services" style="swimlane;fontStyle=2;align=center;verticalAlign=top;childLayout=stackLayout;horizontal=1;startSize=26;horizontalStack=0;resizeParent=1;resizeLast=0;collapsible=1;marginBottom=0;rounded=0;shadow=0;strokeWidth=1;" vertex="1" parent="1">
          <mxGeometry x="480" y="650" width="160" height="95" as="geometry">
            <mxRectangle x="230" y="140" width="160" height="26" as="alternateBounds" />
          </mxGeometry>
        </mxCell>
        <mxCell id="J2jFbFHdJuAAOiXJvLUw-12" value="- type: String" style="text;align=left;verticalAlign=top;spacingLeft=4;spacingRight=4;overflow=hidden;rotatable=0;points=[[0,0.5],[1,0.5]];portConstraint=eastwest;" vertex="1" parent="J2jFbFHdJuAAOiXJvLUw-11">
          <mxGeometry y="26" width="160" height="26" as="geometry" />
        </mxCell>
        <mxCell id="J2jFbFHdJuAAOiXJvLUw-13" value="- characteristics: String" style="text;align=left;verticalAlign=top;spacingLeft=4;spacingRight=4;overflow=hidden;rotatable=0;points=[[0,0.5],[1,0.5]];portConstraint=eastwest;rounded=0;shadow=0;html=0;" vertex="1" parent="J2jFbFHdJuAAOiXJvLUw-11">
          <mxGeometry y="52" width="160" height="26" as="geometry" />
        </mxCell>
        <mxCell id="J2jFbFHdJuAAOiXJvLUw-19" style="edgeStyle=orthogonalEdgeStyle;rounded=0;orthogonalLoop=1;jettySize=auto;html=1;endSize=10;endArrow=open;endFill=0;entryX=0.5;entryY=1;entryDx=0;entryDy=0;" edge="1" parent="1" target="J2jFbFHdJuAAOiXJvLUw-23">
          <mxGeometry relative="1" as="geometry">
            <mxPoint x="560" y="650" as="sourcePoint" />
            <mxPoint x="560" y="510" as="targetPoint" />
            <Array as="points" />
          </mxGeometry>
        </mxCell>
        <mxCell id="J2jFbFHdJuAAOiXJvLUw-20" value="1" style="resizable=0;align=left;verticalAlign=bottom;labelBackgroundColor=none;fontSize=12;" connectable="0" vertex="1" parent="1">
          <mxGeometry x="570" y="640" as="geometry" />
        </mxCell>
        <mxCell id="J2jFbFHdJuAAOiXJvLUw-21" value="1" style="resizable=0;align=left;verticalAlign=bottom;labelBackgroundColor=none;fontSize=12;direction=south;" connectable="0" vertex="1" parent="1">
          <mxGeometry x="570" y="530" as="geometry">
            <mxPoint x="-5" y="15" as="offset" />
          </mxGeometry>
        </mxCell>
        <mxCell id="J2jFbFHdJuAAOiXJvLUw-22" value="send" style="text;html=1;resizable=0;points=[];;align=center;verticalAlign=middle;labelBackgroundColor=none;rounded=0;shadow=0;strokeWidth=1;fontSize=12;" vertex="1" connectable="0" parent="1">
          <mxGeometry x="520" y="580" as="geometry" />
        </mxCell>
      </root>
    </mxGraphModel>
  </diagram>
</mxfile>
